<svg width="144" height="98" viewBox="0 0 144 98" fill="none" xmlns="http://www.w3.org/2000/svg">
<path d="M0.003479 97V1.25669e-09H72.0035V17.0405H18.5035V34.518H72.0035V53.6152H18.5035V97H0.003479Z" fill="black"/>
<path d="M0 97.5V1.25669e-09H72V19.2034H18.5V34.5H72V54.1152H18.5V97.5H0Z" fill="#FF0000"/>
<path d="M76 97V0H94.5L94.502 39.5H125.505L125.503 0H144V97H125.505V56.5L106.004 56.5007L125.505 76.75L106.005 96.9989L76 97Z" fill="black"/>
<path d="M0.003479 97V1.25669e-09H72.0035V17.0405H18.5035V34.518H72.0035V53.6152H18.5035V97H0.003479Z" fill="black"/>
<path d="M0 97.5V1.25669e-09H72V19.2034H18.5V34.5H72V54.1152H18.5V97.5H0Z" fill="#FF0000"/>
<path d="M76 97V0H94.5L94.502 39.5H125.505L125.503 0H144V97H125.505V56.5L106.004 56.5007L125.505 76.75L106.005 96.9989L76 97Z" fill="black"/>
</svg>
